<svg width="120" height="120" viewBox="0 0 120 120" fill="none" xmlns="http://www.w3.org/2000/svg">
  <defs>
    <linearGradient id="headGrad" x1="60" y1="0" x2="60" y2="100" gradientUnits="userSpaceOnUse">
      <stop offset="0%" stop-color="#7C3AED"/>
      <stop offset="100%" stop-color="#22C55E"/>
    </linearGradient>
    <linearGradient id="faceGrad" x1="60" y1="40" x2="60" y2="90" gradientUnits="userSpaceOnUse">
      <stop offset="0%" stop-color="#E2E8F0"/>
      <stop offset="100%" stop-color="#94A3B8"/>
    </linearGradient>
    <radialGradient id="eyeGrad" cx="0.3" cy="0.3" r="0.7" gradientUnits="objectBoundingBox">
      <stop offset="0%" stop-color="#FFFFFF"/>
      <stop offset="100%" stop-color="#3B82F6"/>
    </radialGradient>
  </defs>
  <rect x="10" y="20" width="100" height="80" rx="20" fill="url(#headGrad)"/>
  <path d="M20 45C20 39.4772 24.4772 35 30 35H90C95.5228 35 100 39.4772 100 45V80C100 85.5228 95.5228 90 90 90H30C24.4772 90 20 85.5228 20 80V45Z" fill="url(#faceGrad)"/>
  <circle cx="42" cy="60" r="10" fill="url(#eyeGrad)"/>
  <circle cx="78" cy="60" r="10" fill="url(#eyeGrad)"/>
  <path d="M45 85C45 88.3137 47.6863 91 51 91H69C72.3137 91 75 88.3137 75 85V84C75 80.6863 72.3137 78 69 78H51C47.6863 78 45 80.6863 45 84V85Z" fill="#0F172A"/>
  <path d="M50 60C50 59.4477 50.4477 59 51 59H69C69.5523 59 70 59.4477 70 60C70 60.5523 69.5523 61 69 61H51C50.4477 61 50 60.5523 50 60Z" fill="#0F172A"/>
  <path d="M27 30C27 24.4772 31.4772 20 37 20H83C88.5228 20 93 24.4772 93 30V32C93 33.1046 92.1046 34 91 34H29C27.8954 34 27 33.1046 27 32V30Z" fill="#0F172A" opacity="0.15"/>
</svg>
